<svg width="253" height="212" viewBox="0 0 253 212" fill="none" xmlns="http://www.w3.org/2000/svg">
<path d="M231.035 106C231.035 164.542 183.578 212 125.036 212C66.4933 212 3.50001 152.5 50.0001 114C92.9862 78.4094 127.536 156.5 125.036 0C183.578 0 231.035 47.4578 231.035 106Z" fill="#FFB404"/>
<path d="M228 106C228 161.776 182.562 207 126.5 207C70.4385 207 25 161.776 25 106C25 50.2238 70.4385 5 126.5 5C182.562 5 228 50.2238 228 106Z" fill="#191C20" stroke="white" stroke-width="2"/>
<path d="M93.9074 119.48C91.8274 119.48 90.0034 119.096 88.4354 118.328C86.8994 117.56 85.6994 116.472 84.8354 115.064C83.9714 113.624 83.5394 111.944 83.5394 110.024C83.5394 108.712 83.6834 107.496 83.9714 106.376C84.2594 105.256 84.7394 104.072 85.4114 102.824C86.1154 101.544 87.0434 100.04 88.1954 98.312L94.4834 89.048L98.7554 91.88L90.1154 104.552L89.4434 103.496C89.7954 102.984 90.2434 102.536 90.7874 102.152C91.3314 101.736 91.9714 101.416 92.7074 101.192C93.4434 100.936 94.2434 100.808 95.1074 100.808C96.9634 100.808 98.5794 101.192 99.9554 101.96C101.331 102.728 102.403 103.784 103.171 105.128C103.971 106.472 104.371 108.072 104.371 109.928C104.371 111.848 103.923 113.528 103.027 114.968C102.131 116.408 100.899 117.528 99.3314 118.328C97.7634 119.096 95.9554 119.48 93.9074 119.48ZM94.0034 115.256C95.5074 115.256 96.6594 114.76 97.4594 113.768C98.2914 112.776 98.7074 111.48 98.7074 109.88C98.7074 108.312 98.3074 107.064 97.5074 106.136C96.7074 105.176 95.5874 104.696 94.1474 104.696C93.2514 104.696 92.4354 104.904 91.6994 105.32C90.9634 105.736 90.3714 106.344 89.9234 107.144C89.5074 107.912 89.2994 108.856 89.2994 109.976C89.2994 111.48 89.6994 112.744 90.4994 113.768C91.3314 114.76 92.4994 115.256 94.0034 115.256ZM119.621 119.528C115.941 119.528 113.125 118.28 111.173 115.784C109.253 113.256 108.293 109.72 108.293 105.176C108.293 100.76 109.253 97.304 111.173 94.808C113.125 92.312 115.941 91.064 119.621 91.064C123.301 91.064 126.101 92.312 128.021 94.808C129.941 97.272 130.901 100.728 130.901 105.176C130.901 109.72 129.941 113.256 128.021 115.784C126.101 118.28 123.301 119.528 119.621 119.528ZM119.621 115.112C121.381 115.112 122.693 114.28 123.557 112.616C124.453 110.952 124.901 108.472 124.901 105.176C124.901 101.944 124.453 99.512 123.557 97.88C122.693 96.248 121.381 95.432 119.621 95.432C117.861 95.432 116.533 96.248 115.637 97.88C114.773 99.512 114.341 101.944 114.341 105.176C114.341 108.472 114.773 110.952 115.637 112.616C116.533 114.28 117.861 115.112 119.621 115.112ZM142.542 105.032C141.166 105.032 139.934 104.744 138.846 104.168C137.79 103.56 136.958 102.728 136.35 101.672C135.742 100.584 135.438 99.352 135.438 97.976C135.438 96.568 135.742 95.352 136.35 94.328C136.958 93.304 137.79 92.504 138.846 91.928C139.934 91.32 141.166 91.016 142.542 91.016C144.654 91.016 146.382 91.656 147.726 92.936C149.07 94.216 149.742 95.896 149.742 97.976C149.742 99.352 149.438 100.584 148.83 101.672C148.222 102.728 147.374 103.56 146.286 104.168C145.198 104.744 143.95 105.032 142.542 105.032ZM142.542 102.104C143.566 102.072 144.366 101.688 144.942 100.952C145.55 100.216 145.854 99.224 145.854 97.976C145.854 96.76 145.55 95.768 144.942 95C144.366 94.232 143.566 93.864 142.542 93.896C141.582 93.928 140.798 94.312 140.19 95.048C139.582 95.784 139.278 96.76 139.278 97.976C139.278 99.224 139.582 100.232 140.19 101C140.798 101.736 141.582 102.104 142.542 102.104ZM161.982 119.528C160.606 119.528 159.374 119.224 158.286 118.616C157.23 118.008 156.398 117.176 155.79 116.12C155.182 115.064 154.878 113.832 154.878 112.424C154.878 110.376 155.534 108.712 156.846 107.432C158.19 106.152 159.902 105.512 161.982 105.512C164.094 105.512 165.806 106.152 167.118 107.432C168.462 108.712 169.134 110.376 169.134 112.424C169.134 113.832 168.83 115.064 168.222 116.12C167.614 117.176 166.766 118.008 165.678 118.616C164.622 119.224 163.39 119.528 161.982 119.528ZM161.982 116.6C163.006 116.568 163.806 116.184 164.382 115.448C164.99 114.68 165.294 113.672 165.294 112.424C165.294 111.208 164.99 110.232 164.382 109.496C163.806 108.728 163.006 108.36 161.982 108.392C161.022 108.392 160.238 108.76 159.63 109.496C159.022 110.232 158.718 111.208 158.718 112.424C158.718 113.672 159.022 114.68 159.63 115.448C160.238 116.216 161.022 116.6 161.982 116.6ZM141.726 119.048L159.822 91.4H162.846L144.894 119.048H141.726Z" fill="white"/>
</svg>
