<svg width="254" height="212" viewBox="0 0 254 212" fill="none" xmlns="http://www.w3.org/2000/svg">
<path d="M228.036 106C228.036 164.542 180.578 212 122.036 212C63.4935 212 16.5196 164.523 18.0357 106C20.5357 9.5 124.536 156.5 122.036 0C180.578 0 228.036 47.4578 228.036 106Z" fill="#FFB404"/>
<circle cx="123.5" cy="105.5" r="101.5" fill="#191C20" stroke="white" stroke-width="2"/>
<circle cx="123.5" cy="105.5" r="101.5" fill="#191C20" stroke="white" stroke-width="2"/>
<path d="M94.2668 118.528C92.0588 118.528 90.1548 118.192 88.5548 117.52C86.9868 116.848 85.7868 115.92 84.9548 114.736C84.1228 113.552 83.7068 112.208 83.7068 110.704C83.7068 109.072 84.1548 107.68 85.0508 106.528C85.9788 105.376 87.2108 104.496 88.7468 103.888C87.3388 103.184 86.2828 102.32 85.5788 101.296C84.9068 100.24 84.5708 99.024 84.5708 97.648C84.5708 96.112 84.9868 94.784 85.8188 93.664C86.6508 92.512 87.8028 91.632 89.2748 91.024C90.7468 90.384 92.4428 90.064 94.3628 90.064C96.3148 90.032 98.0108 90.32 99.4508 90.928C100.923 91.504 102.059 92.336 102.859 93.424C103.691 94.48 104.107 95.76 104.107 97.264C104.107 98.8 103.723 100.112 102.955 101.2C102.187 102.288 101.099 103.152 99.6908 103.792C101.419 104.368 102.731 105.216 103.627 106.336C104.523 107.424 104.971 108.784 104.971 110.416C104.971 111.984 104.523 113.392 103.627 114.64C102.763 115.856 101.531 116.816 99.9308 117.52C98.3308 118.192 96.4428 118.528 94.2668 118.528ZM94.2188 115.216C95.6908 115.216 96.8268 114.8 97.6268 113.968C98.4268 113.104 98.8268 111.984 98.8268 110.608C98.8268 109.136 98.3148 108.016 97.2908 107.248C96.2988 106.48 94.6988 105.856 92.4908 105.376C91.9788 105.568 91.4828 105.904 91.0028 106.384C90.5548 106.832 90.1708 107.424 89.8508 108.16C89.5628 108.864 89.4188 109.664 89.4188 110.56C89.4188 111.936 89.8348 113.056 90.6668 113.92C91.5308 114.784 92.7148 115.216 94.2188 115.216ZM96.0428 102.448C96.4268 102.192 96.8108 101.84 97.1948 101.392C97.6108 100.944 97.9468 100.4 98.2028 99.76C98.4908 99.088 98.6348 98.32 98.6348 97.456C98.6348 96.272 98.2988 95.328 97.6268 94.624C96.9548 93.888 95.9628 93.52 94.6508 93.52C93.3708 93.52 92.3788 93.904 91.6748 94.672C91.0028 95.408 90.6668 96.4 90.6668 97.648C90.6668 99.024 91.1308 100.08 92.0588 100.816C92.9868 101.552 94.3148 102.096 96.0428 102.448ZM120.261 118.528C116.581 118.528 113.765 117.28 111.813 114.784C109.893 112.256 108.933 108.72 108.933 104.176C108.933 99.76 109.893 96.304 111.813 93.808C113.765 91.312 116.581 90.064 120.261 90.064C123.941 90.064 126.741 91.312 128.661 93.808C130.581 96.272 131.541 99.728 131.541 104.176C131.541 108.72 130.581 112.256 128.661 114.784C126.741 117.28 123.941 118.528 120.261 118.528ZM120.261 114.112C122.021 114.112 123.333 113.28 124.197 111.616C125.093 109.952 125.541 107.472 125.541 104.176C125.541 100.944 125.093 98.512 124.197 96.88C123.333 95.248 122.021 94.432 120.261 94.432C118.501 94.432 117.173 95.248 116.277 96.88C115.413 98.512 114.981 100.944 114.981 104.176C114.981 107.472 115.413 109.952 116.277 111.616C117.173 113.28 118.501 114.112 120.261 114.112ZM143.183 104.032C141.807 104.032 140.575 103.744 139.487 103.168C138.431 102.56 137.599 101.728 136.991 100.672C136.383 99.584 136.079 98.352 136.079 96.976C136.079 95.568 136.383 94.352 136.991 93.328C137.599 92.304 138.431 91.504 139.487 90.928C140.575 90.32 141.807 90.016 143.183 90.016C145.295 90.016 147.023 90.656 148.367 91.936C149.711 93.216 150.383 94.896 150.383 96.976C150.383 98.352 150.079 99.584 149.471 100.672C148.863 101.728 148.015 102.56 146.927 103.168C145.839 103.744 144.591 104.032 143.183 104.032ZM143.183 101.104C144.207 101.072 145.007 100.688 145.583 99.952C146.191 99.216 146.495 98.224 146.495 96.976C146.495 95.76 146.191 94.768 145.583 94C145.007 93.232 144.207 92.864 143.183 92.896C142.223 92.928 141.439 93.312 140.831 94.048C140.223 94.784 139.919 95.76 139.919 96.976C139.919 98.224 140.223 99.232 140.831 100C141.439 100.736 142.223 101.104 143.183 101.104ZM162.623 118.528C161.247 118.528 160.015 118.224 158.927 117.616C157.871 117.008 157.039 116.176 156.431 115.12C155.823 114.064 155.519 112.832 155.519 111.424C155.519 109.376 156.175 107.712 157.487 106.432C158.831 105.152 160.543 104.512 162.623 104.512C164.735 104.512 166.447 105.152 167.759 106.432C169.103 107.712 169.775 109.376 169.775 111.424C169.775 112.832 169.471 114.064 168.863 115.12C168.255 116.176 167.407 117.008 166.319 117.616C165.263 118.224 164.031 118.528 162.623 118.528ZM162.623 115.6C163.647 115.568 164.447 115.184 165.023 114.448C165.631 113.68 165.935 112.672 165.935 111.424C165.935 110.208 165.631 109.232 165.023 108.496C164.447 107.728 163.647 107.36 162.623 107.392C161.663 107.392 160.879 107.76 160.271 108.496C159.663 109.232 159.359 110.208 159.359 111.424C159.359 112.672 159.663 113.68 160.271 114.448C160.879 115.216 161.663 115.6 162.623 115.6ZM142.367 118.048L160.463 90.4H163.487L145.535 118.048H142.367Z" fill="white"/>
</svg>
