<svg width="254" height="208" viewBox="0 0 254 208" fill="none" xmlns="http://www.w3.org/2000/svg">
<path d="M233.5 106C230.936 165.5 189 195.5 185.032 189.5C157.997 171.5 97.5119 174.023 99.028 115.5C101.528 19 128.564 156.5 126.064 0C184.606 0 233.5 47.4578 233.5 106Z" fill="#FFB404"/>
<circle cx="127" cy="106" r="101" fill="#191C20" stroke="white" stroke-width="2"/>
<path d="M90.8868 117V113.208H95.5428V109.08H83.1108L82.6308 106.152L95.6868 89.544H101.207V105.672H105.287V109.08H101.207V113.208H104.519V117H90.8868ZM87.3828 105.672H95.5428V95.064L87.3828 105.672ZM120.426 117.528C116.746 117.528 113.93 116.28 111.978 113.784C110.058 111.256 109.098 107.72 109.098 103.176C109.098 98.76 110.058 95.304 111.978 92.808C113.93 90.312 116.746 89.064 120.426 89.064C124.106 89.064 126.906 90.312 128.826 92.808C130.746 95.272 131.706 98.728 131.706 103.176C131.706 107.72 130.746 111.256 128.826 113.784C126.906 116.28 124.106 117.528 120.426 117.528ZM120.426 113.112C122.186 113.112 123.498 112.28 124.362 110.616C125.258 108.952 125.706 106.472 125.706 103.176C125.706 99.944 125.258 97.512 124.362 95.88C123.498 94.248 122.186 93.432 120.426 93.432C118.666 93.432 117.338 94.248 116.442 95.88C115.578 97.512 115.146 99.944 115.146 103.176C115.146 106.472 115.578 108.952 116.442 110.616C117.338 112.28 118.666 113.112 120.426 113.112ZM143.347 103.032C141.971 103.032 140.739 102.744 139.651 102.168C138.595 101.56 137.763 100.728 137.155 99.672C136.547 98.584 136.243 97.352 136.243 95.976C136.243 94.568 136.547 93.352 137.155 92.328C137.763 91.304 138.595 90.504 139.651 89.928C140.739 89.32 141.971 89.016 143.347 89.016C145.459 89.016 147.187 89.656 148.531 90.936C149.875 92.216 150.547 93.896 150.547 95.976C150.547 97.352 150.243 98.584 149.635 99.672C149.027 100.728 148.179 101.56 147.091 102.168C146.003 102.744 144.755 103.032 143.347 103.032ZM143.347 100.104C144.371 100.072 145.171 99.688 145.747 98.952C146.355 98.216 146.659 97.224 146.659 95.976C146.659 94.76 146.355 93.768 145.747 93C145.171 92.232 144.371 91.864 143.347 91.896C142.387 91.928 141.603 92.312 140.995 93.048C140.387 93.784 140.083 94.76 140.083 95.976C140.083 97.224 140.387 98.232 140.995 99C141.603 99.736 142.387 100.104 143.347 100.104ZM162.787 117.528C161.411 117.528 160.179 117.224 159.091 116.616C158.035 116.008 157.203 115.176 156.595 114.12C155.987 113.064 155.683 111.832 155.683 110.424C155.683 108.376 156.339 106.712 157.651 105.432C158.995 104.152 160.707 103.512 162.787 103.512C164.899 103.512 166.611 104.152 167.923 105.432C169.267 106.712 169.939 108.376 169.939 110.424C169.939 111.832 169.635 113.064 169.027 114.12C168.419 115.176 167.571 116.008 166.483 116.616C165.427 117.224 164.195 117.528 162.787 117.528ZM162.787 114.6C163.811 114.568 164.611 114.184 165.187 113.448C165.795 112.68 166.099 111.672 166.099 110.424C166.099 109.208 165.795 108.232 165.187 107.496C164.611 106.728 163.811 106.36 162.787 106.392C161.827 106.392 161.043 106.76 160.435 107.496C159.827 108.232 159.523 109.208 159.523 110.424C159.523 111.672 159.827 112.68 160.435 113.448C161.043 114.216 161.827 114.6 162.787 114.6ZM142.531 117.048L160.627 89.4H163.651L145.699 117.048H142.531Z" fill="white"/>
</svg>
