<svg width="253" height="212" viewBox="0 0 253 212" fill="none" xmlns="http://www.w3.org/2000/svg">
<path d="M226.036 106C226.036 164.542 178.578 212 120.036 212C61.4935 212 19 172.5 16.0001 116C11.7254 35.4908 122.536 156.5 120.036 0C178.578 0 226.036 47.4578 226.036 106Z" fill="#FFB404"/>
<path d="M218.5 106C218.5 160.941 173.74 205.5 118.5 205.5C63.26 205.5 18.5 160.941 18.5 106C18.5 51.0592 63.26 6.5 118.5 6.5C173.74 6.5 218.5 51.0592 218.5 106Z" fill="#191C20" stroke="white" stroke-width="5"/>
<path d="M88.3706 118L97.3946 94.384H87.7466V98.704H83.1866V90.544H103.491V94.144L94.4186 118H88.3706ZM118.918 118.528C115.238 118.528 112.422 117.28 110.47 114.784C108.55 112.256 107.59 108.72 107.59 104.176C107.59 99.76 108.55 96.304 110.47 93.808C112.422 91.312 115.238 90.064 118.918 90.064C122.598 90.064 125.398 91.312 127.318 93.808C129.238 96.272 130.198 99.728 130.198 104.176C130.198 108.72 129.238 112.256 127.318 114.784C125.398 117.28 122.598 118.528 118.918 118.528ZM118.918 114.112C120.678 114.112 121.99 113.28 122.854 111.616C123.75 109.952 124.198 107.472 124.198 104.176C124.198 100.944 123.75 98.512 122.854 96.88C121.99 95.248 120.678 94.432 118.918 94.432C117.158 94.432 115.83 95.248 114.934 96.88C114.07 98.512 113.638 100.944 113.638 104.176C113.638 107.472 114.07 109.952 114.934 111.616C115.83 113.28 117.158 114.112 118.918 114.112ZM141.839 104.032C140.463 104.032 139.231 103.744 138.143 103.168C137.087 102.56 136.255 101.728 135.647 100.672C135.039 99.584 134.735 98.352 134.735 96.976C134.735 95.568 135.039 94.352 135.647 93.328C136.255 92.304 137.087 91.504 138.143 90.928C139.231 90.32 140.463 90.016 141.839 90.016C143.951 90.016 145.679 90.656 147.023 91.936C148.367 93.216 149.039 94.896 149.039 96.976C149.039 98.352 148.735 99.584 148.127 100.672C147.519 101.728 146.671 102.56 145.583 103.168C144.495 103.744 143.247 104.032 141.839 104.032ZM141.839 101.104C142.863 101.072 143.663 100.688 144.239 99.952C144.847 99.216 145.151 98.224 145.151 96.976C145.151 95.76 144.847 94.768 144.239 94C143.663 93.232 142.863 92.864 141.839 92.896C140.879 92.928 140.095 93.312 139.487 94.048C138.879 94.784 138.575 95.76 138.575 96.976C138.575 98.224 138.879 99.232 139.487 100C140.095 100.736 140.879 101.104 141.839 101.104ZM161.279 118.528C159.903 118.528 158.671 118.224 157.583 117.616C156.527 117.008 155.695 116.176 155.087 115.12C154.479 114.064 154.175 112.832 154.175 111.424C154.175 109.376 154.831 107.712 156.143 106.432C157.487 105.152 159.199 104.512 161.279 104.512C163.391 104.512 165.103 105.152 166.415 106.432C167.759 107.712 168.431 109.376 168.431 111.424C168.431 112.832 168.127 114.064 167.519 115.12C166.911 116.176 166.063 117.008 164.975 117.616C163.919 118.224 162.687 118.528 161.279 118.528ZM161.279 115.6C162.303 115.568 163.103 115.184 163.679 114.448C164.287 113.68 164.591 112.672 164.591 111.424C164.591 110.208 164.287 109.232 163.679 108.496C163.103 107.728 162.303 107.36 161.279 107.392C160.319 107.392 159.535 107.76 158.927 108.496C158.319 109.232 158.015 110.208 158.015 111.424C158.015 112.672 158.319 113.68 158.927 114.448C159.535 115.216 160.319 115.6 161.279 115.6ZM141.023 118.048L159.119 90.4H162.143L144.191 118.048H141.023Z" fill="white"/>
</svg>
