<svg xmlns="http://www.w3.org/2000/svg" width="253" height="212" fill="none"><path fill="#FFB404" d="M231.035 106c0 58.542-47.457 106-105.999 106C66.493 212 3.5 152.5 50 114c42.986-35.59 77.536 42.5 75.036-114 58.542 0 105.999 47.458 105.999 106Z"/><path fill="#191C20" stroke="#fff" stroke-width="2" d="M228 106c0 55.776-45.438 101-101.5 101C70.439 207 25 161.776 25 106S70.439 5 126.5 5C182.562 5 228 50.224 228 106Z"/><path fill="#fff" d="M93.907 119.48c-2.08 0-3.904-.384-5.472-1.152-1.536-.768-2.736-1.856-3.6-3.264-.864-1.44-1.296-3.12-1.296-5.04 0-1.312.144-2.528.432-3.648.288-1.12.768-2.304 1.44-3.552.704-1.28 1.632-2.784 2.784-4.512l6.288-9.264 4.272 2.832-8.64 12.672-.672-1.056c.352-.512.8-.96 1.344-1.344a6.006 6.006 0 0 1 1.92-.96 7.259 7.259 0 0 1 2.4-.384c1.856 0 3.472.384 4.848 1.152a8.274 8.274 0 0 1 3.216 3.168c.8 1.344 1.2 2.944 1.2 4.8 0 1.92-.448 3.6-1.344 5.04-.896 1.44-2.128 2.56-3.696 3.36-1.568.768-3.376 1.152-5.424 1.152Zm.096-4.224c1.504 0 2.656-.496 3.456-1.488.832-.992 1.248-2.288 1.248-3.888 0-1.568-.4-2.816-1.2-3.744-.8-.96-1.92-1.44-3.36-1.44-.896 0-1.712.208-2.448.624-.736.416-1.328 1.024-1.776 1.824-.416.768-.624 1.712-.624 2.832 0 1.504.4 2.768 1.2 3.792.832.992 2 1.488 3.504 1.488Zm25.618 4.272c-3.68 0-6.496-1.248-8.448-3.744-1.92-2.528-2.88-6.064-2.88-10.608 0-4.416.96-7.872 2.88-10.368 1.952-2.496 4.768-3.744 8.448-3.744 3.68 0 6.48 1.248 8.4 3.744 1.92 2.464 2.88 5.92 2.88 10.368 0 4.544-.96 8.08-2.88 10.608-1.92 2.496-4.72 3.744-8.4 3.744Zm0-4.416c1.76 0 3.072-.832 3.936-2.496.896-1.664 1.344-4.144 1.344-7.44 0-3.232-.448-5.664-1.344-7.296-.864-1.632-2.176-2.448-3.936-2.448-1.76 0-3.088.816-3.984 2.448-.864 1.632-1.296 4.064-1.296 7.296 0 3.296.432 5.776 1.296 7.44.896 1.664 2.224 2.496 3.984 2.496Zm22.921-10.08c-1.376 0-2.608-.288-3.696-.864a6.674 6.674 0 0 1-2.496-2.496c-.608-1.088-.912-2.32-.912-3.696 0-1.408.304-2.624.912-3.648a6.428 6.428 0 0 1 2.496-2.4c1.088-.608 2.32-.912 3.696-.912 2.112 0 3.84.64 5.184 1.92 1.344 1.28 2.016 2.96 2.016 5.04 0 1.376-.304 2.608-.912 3.696a6.577 6.577 0 0 1-2.544 2.496c-1.088.576-2.336.864-3.744.864Zm0-2.928c1.024-.032 1.824-.416 2.4-1.152.608-.736.912-1.728.912-2.976 0-1.216-.304-2.208-.912-2.976-.576-.768-1.376-1.136-2.4-1.104-.96.032-1.744.416-2.352 1.152-.608.736-.912 1.712-.912 2.928 0 1.248.304 2.256.912 3.024.608.736 1.392 1.104 2.352 1.104Zm19.44 17.424c-1.376 0-2.608-.304-3.696-.912a6.674 6.674 0 0 1-2.496-2.496c-.608-1.056-.912-2.288-.912-3.696 0-2.048.656-3.712 1.968-4.992 1.344-1.28 3.056-1.92 5.136-1.92 2.112 0 3.824.64 5.136 1.92 1.344 1.28 2.016 2.944 2.016 4.992 0 1.408-.304 2.64-.912 3.696a6.577 6.577 0 0 1-2.544 2.496c-1.056.608-2.288.912-3.696.912Zm0-2.928c1.024-.032 1.824-.416 2.4-1.152.608-.768.912-1.776.912-3.024 0-1.216-.304-2.192-.912-2.928-.576-.768-1.376-1.136-2.4-1.104-.96 0-1.744.368-2.352 1.104-.608.736-.912 1.712-.912 2.928 0 1.248.304 2.256.912 3.024.608.768 1.392 1.152 2.352 1.152Zm-20.256 2.448L159.822 91.4h3.024l-17.952 27.648h-3.168Z"/></svg>