<svg xmlns="http://www.w3.org/2000/svg" width="254" height="212" fill="none"><path fill="#FFB404" d="M228.036 106c0 58.542-47.458 106-106 106-58.543 0-105.516-47.477-104-106 2.5-96.5 106.5 50.5 104-106 58.542 0 106 47.458 106 106Z"/><circle cx="123.5" cy="105.5" r="101.5" fill="#191C20" stroke="#fff" stroke-width="2"/><circle cx="123.5" cy="105.5" r="101.5" fill="#191C20" stroke="#fff" stroke-width="2"/><path fill="#fff" d="M94.267 118.528c-2.208 0-4.112-.336-5.712-1.008-1.568-.672-2.768-1.6-3.6-2.784-.832-1.184-1.248-2.528-1.248-4.032 0-1.632.448-3.024 1.344-4.176.928-1.152 2.16-2.032 3.696-2.64-1.408-.704-2.464-1.568-3.168-2.592-.672-1.056-1.008-2.272-1.008-3.648 0-1.536.416-2.864 1.248-3.984.832-1.152 1.984-2.032 3.456-2.64 1.472-.64 3.168-.96 5.088-.96 1.952-.032 3.648.256 5.088.864 1.472.576 2.608 1.408 3.408 2.496.832 1.056 1.248 2.336 1.248 3.84 0 1.536-.384 2.848-1.152 3.936-.768 1.088-1.856 1.952-3.264 2.592 1.728.576 3.04 1.424 3.936 2.544.896 1.088 1.344 2.448 1.344 4.08 0 1.568-.448 2.976-1.344 4.224-.864 1.216-2.096 2.176-3.696 2.88-1.6.672-3.488 1.008-5.664 1.008Zm-.048-3.312c1.472 0 2.608-.416 3.408-1.248.8-.864 1.2-1.984 1.2-3.36 0-1.472-.512-2.592-1.536-3.36-.992-.768-2.592-1.392-4.8-1.872-.512.192-1.008.528-1.488 1.008-.448.448-.832 1.04-1.152 1.776-.288.704-.432 1.504-.432 2.4 0 1.376.416 2.496 1.248 3.36.864.864 2.048 1.296 3.552 1.296Zm1.824-12.768c.384-.256.768-.608 1.152-1.056a5.214 5.214 0 0 0 1.008-1.632c.288-.672.432-1.44.432-2.304 0-1.184-.336-2.128-1.008-2.832-.672-.736-1.664-1.104-2.976-1.104-1.28 0-2.272.384-2.976 1.152-.672.736-1.008 1.728-1.008 2.976 0 1.376.464 2.432 1.392 3.168.928.736 2.256 1.28 3.984 1.632Zm24.218 16.08c-3.68 0-6.496-1.248-8.448-3.744-1.92-2.528-2.88-6.064-2.88-10.608 0-4.416.96-7.872 2.88-10.368 1.952-2.496 4.768-3.744 8.448-3.744 3.68 0 6.48 1.248 8.4 3.744 1.92 2.464 2.88 5.92 2.88 10.368 0 4.544-.96 8.08-2.88 10.608-1.92 2.496-4.72 3.744-8.4 3.744Zm0-4.416c1.76 0 3.072-.832 3.936-2.496.896-1.664 1.344-4.144 1.344-7.44 0-3.232-.448-5.664-1.344-7.296-.864-1.632-2.176-2.448-3.936-2.448-1.76 0-3.088.816-3.984 2.448-.864 1.632-1.296 4.064-1.296 7.296 0 3.296.432 5.776 1.296 7.44.896 1.664 2.224 2.496 3.984 2.496Zm22.922-10.08c-1.376 0-2.608-.288-3.696-.864a6.674 6.674 0 0 1-2.496-2.496c-.608-1.088-.912-2.32-.912-3.696 0-1.408.304-2.624.912-3.648a6.428 6.428 0 0 1 2.496-2.4c1.088-.608 2.32-.912 3.696-.912 2.112 0 3.84.64 5.184 1.92 1.344 1.28 2.016 2.96 2.016 5.04 0 1.376-.304 2.608-.912 3.696a6.577 6.577 0 0 1-2.544 2.496c-1.088.576-2.336.864-3.744.864Zm0-2.928c1.024-.032 1.824-.416 2.4-1.152.608-.736.912-1.728.912-2.976 0-1.216-.304-2.208-.912-2.976-.576-.768-1.376-1.136-2.4-1.104-.96.032-1.744.416-2.352 1.152-.608.736-.912 1.712-.912 2.928 0 1.248.304 2.256.912 3.024.608.736 1.392 1.104 2.352 1.104Zm19.44 17.424c-1.376 0-2.608-.304-3.696-.912a6.674 6.674 0 0 1-2.496-2.496c-.608-1.056-.912-2.288-.912-3.696 0-2.048.656-3.712 1.968-4.992 1.344-1.28 3.056-1.92 5.136-1.92 2.112 0 3.824.64 5.136 1.92 1.344 1.28 2.016 2.944 2.016 4.992 0 1.408-.304 2.64-.912 3.696a6.577 6.577 0 0 1-2.544 2.496c-1.056.608-2.288.912-3.696.912Zm0-2.928c1.024-.032 1.824-.416 2.4-1.152.608-.768.912-1.776.912-3.024 0-1.216-.304-2.192-.912-2.928-.576-.768-1.376-1.136-2.4-1.104-.96 0-1.744.368-2.352 1.104-.608.736-.912 1.712-.912 2.928 0 1.248.304 2.256.912 3.024.608.768 1.392 1.152 2.352 1.152Zm-20.256 2.448L160.463 90.4h3.024l-17.952 27.648h-3.168Z"/></svg>