<svg xmlns="http://www.w3.org/2000/svg" width="254" height="208" fill="none"><path fill="#FFB404" d="M233.5 106c-2.564 59.5-44.5 89.5-48.468 83.5-27.035-18-87.52-15.477-86.004-74 2.5-96.5 29.536 41 27.036-115.5C184.606 0 233.5 47.458 233.5 106Z"/><circle cx="127" cy="106" r="101" fill="#191C20" stroke="#fff" stroke-width="2"/><path fill="#fff" d="M90.887 117v-3.792h4.656v-4.128H83.11l-.48-2.928 13.056-16.608h5.52v16.128h4.08v3.408h-4.08v4.128h3.312V117H90.887Zm-3.504-11.328h8.16V95.064l-8.16 10.608Zm33.043 11.856c-3.68 0-6.496-1.248-8.448-3.744-1.92-2.528-2.88-6.064-2.88-10.608 0-4.416.96-7.872 2.88-10.368 1.952-2.496 4.768-3.744 8.448-3.744 3.68 0 6.48 1.248 8.4 3.744 1.92 2.464 2.88 5.92 2.88 10.368 0 4.544-.96 8.08-2.88 10.608-1.92 2.496-4.72 3.744-8.4 3.744Zm0-4.416c1.76 0 3.072-.832 3.936-2.496.896-1.664 1.344-4.144 1.344-7.44 0-3.232-.448-5.664-1.344-7.296-.864-1.632-2.176-2.448-3.936-2.448-1.76 0-3.088.816-3.984 2.448-.864 1.632-1.296 4.064-1.296 7.296 0 3.296.432 5.776 1.296 7.44.896 1.664 2.224 2.496 3.984 2.496Zm22.921-10.08c-1.376 0-2.608-.288-3.696-.864a6.674 6.674 0 0 1-2.496-2.496c-.608-1.088-.912-2.32-.912-3.696 0-1.408.304-2.624.912-3.648a6.428 6.428 0 0 1 2.496-2.4c1.088-.608 2.32-.912 3.696-.912 2.112 0 3.84.64 5.184 1.92 1.344 1.28 2.016 2.96 2.016 5.04 0 1.376-.304 2.608-.912 3.696a6.577 6.577 0 0 1-2.544 2.496c-1.088.576-2.336.864-3.744.864Zm0-2.928c1.024-.032 1.824-.416 2.4-1.152.608-.736.912-1.728.912-2.976 0-1.216-.304-2.208-.912-2.976-.576-.768-1.376-1.136-2.4-1.104-.96.032-1.744.416-2.352 1.152-.608.736-.912 1.712-.912 2.928 0 1.248.304 2.256.912 3.024.608.736 1.392 1.104 2.352 1.104Zm19.44 17.424c-1.376 0-2.608-.304-3.696-.912a6.674 6.674 0 0 1-2.496-2.496c-.608-1.056-.912-2.288-.912-3.696 0-2.048.656-3.712 1.968-4.992 1.344-1.28 3.056-1.92 5.136-1.92 2.112 0 3.824.64 5.136 1.92 1.344 1.28 2.016 2.944 2.016 4.992 0 1.408-.304 2.64-.912 3.696a6.577 6.577 0 0 1-2.544 2.496c-1.056.608-2.288.912-3.696.912Zm0-2.928c1.024-.032 1.824-.416 2.4-1.152.608-.768.912-1.776.912-3.024 0-1.216-.304-2.192-.912-2.928-.576-.768-1.376-1.136-2.4-1.104-.96 0-1.744.368-2.352 1.104-.608.736-.912 1.712-.912 2.928 0 1.248.304 2.256.912 3.024.608.768 1.392 1.152 2.352 1.152Zm-20.256 2.448L160.627 89.4h3.024l-17.952 27.648h-3.168Z"/></svg>